<svg width="30" height="30" viewBox="0 0 30 30" fill="none" xmlns="http://www.w3.org/2000/svg">
<path fill-rule="evenodd" clip-rule="evenodd" d="M4.375 7.5C4.375 7.15482 4.65482 6.875 5 6.875H25C25.3452 6.875 25.625 7.15482 25.625 7.5C25.625 7.84518 25.3452 8.125 25 8.125H5C4.65482 8.125 4.375 7.84518 4.375 7.5ZM4.375 15C4.375 14.6548 4.65482 14.375 5 14.375H25C25.3452 14.375 25.625 14.6548 25.625 15C25.625 15.3452 25.3452 15.625 25 15.625H5C4.65482 15.625 4.375 15.3452 4.375 15ZM4.375 22.5C4.375 22.1548 4.65482 21.875 5 21.875H25C25.3452 21.875 25.625 22.1548 25.625 22.5C25.625 22.8452 25.3452 23.125 25 23.125H5C4.65482 23.125 4.375 22.8452 4.375 22.5Z" fill="white"/>
</svg>
