<svg width="30" height="30" viewBox="0 0 30 30" fill="none" xmlns="http://www.w3.org/2000/svg">
<path fill-rule="evenodd" clip-rule="evenodd" d="M4.83528 4.83534C5.07936 4.59127 5.54492 4.6611 5.87514 4.99132L25.0086 24.1248C25.3388 24.455 25.4087 24.9206 25.1646 25.1647C24.9205 25.4087 24.455 25.3389 24.1247 25.0087L4.99126 5.87521C4.66104 5.54498 4.5912 5.07942 4.83528 4.83534Z" fill="black"/>
<path fill-rule="evenodd" clip-rule="evenodd" d="M4.83537 25.1647C4.5913 24.9206 4.66113 24.455 4.99135 24.1248L24.1248 4.99132C24.4551 4.6611 24.9206 4.59126 25.1647 4.83534C25.4088 5.07942 25.3389 5.54498 25.0087 5.8752L5.87524 25.0087C5.54501 25.3389 5.07945 25.4087 4.83537 25.1647Z" fill="black"/>
</svg>
