<svg width="117" height="35" viewBox="0 0 117 35" fill="none" xmlns="http://www.w3.org/2000/svg">
<path fill-rule="evenodd" clip-rule="evenodd" d="M15.584 0.78412C15.584 1.11171 15.6482 1.1358 16.7831 1.23478C17.9041 1.33259 18.0136 1.37259 18.4619 1.84806L18.9416 2.35653V8.9958C18.9416 16.3186 18.9421 16.3151 18.0483 16.6266C17.793 16.7155 17.3394 16.7884 17.0403 16.7884C15.9962 16.7884 15.584 16.9381 15.584 17.3175V17.6643H25.1422H34.7006L34.9342 17.2123C35.2267 16.6466 36.4599 13.4669 36.4599 13.2783C36.4599 13.2015 36.1479 13.1399 35.7664 13.1412C35.132 13.1435 34.992 13.2151 34.1202 13.9813C32.0606 15.7917 30.5124 16.5338 28.2488 16.7957C26.8302 16.9597 24.9466 16.8748 24.0045 16.6043C23.0502 16.3302 23.0292 16.2421 23.0292 12.5222V9.19711H25.0424C28.3232 9.19711 29.599 9.71113 30.0313 11.2072C30.2129 11.8359 30.308 11.9594 30.6666 12.0311C30.8986 12.0775 31.1473 12.0792 31.2194 12.0346C31.2914 11.9901 31.3504 10.4794 31.3504 8.67755V5.40149H30.801C30.2596 5.40149 30.2489 5.41259 30.072 6.15755C29.8688 7.01332 29.4955 7.47916 28.6497 7.93302C28.1302 8.21171 27.7878 8.25171 25.5475 8.2958L23.0292 8.34529V5.30003C23.0292 1.89142 23.0594 1.77288 24.0151 1.43463C24.7892 1.16047 27.8021 1.20412 29.0492 1.50762C30.7389 1.91857 32.2524 2.59565 33.513 3.50456C34.5057 4.22018 34.8316 4.37959 35.3013 4.37959C35.6174 4.37959 35.8759 4.34587 35.8759 4.30456C35.8759 4.26324 35.4485 3.37638 34.926 2.33375L33.9761 0.437988H24.78H15.584V0.78412ZM19.084 1.45624C19.2425 1.61478 19.4231 1.92675 19.4854 2.14967C19.5476 2.37244 19.5986 5.55478 19.5986 9.22149V15.8881L19.2657 16.3383L18.9329 16.7884H19.3089C19.5156 16.7884 19.846 16.627 20.0431 16.43L20.4015 16.0717V9.1212C20.4015 4.42149 20.3504 2.07521 20.2438 1.87594C20.0983 1.60412 19.299 1.16792 18.9463 1.16792C18.8634 1.16792 18.9254 1.2977 19.084 1.45624ZM31.4964 1.61682C32.0183 1.86368 32.6752 2.20704 32.9562 2.37989L33.4672 2.69419L33.2117 2.29594C32.4308 1.07916 32.5644 1.16792 31.5161 1.16806L30.5475 1.16821L31.4964 1.61682ZM36.6059 5.10062C36.6059 5.32339 36.7432 5.40427 37.2513 5.48032C37.6295 5.53711 38.0152 5.70704 38.1828 5.89083C38.4399 6.17259 41.1448 11.1368 43.6237 15.8759C45.0478 18.5986 44.7755 18.8138 47.9787 12.4367C50.221 7.97273 50.713 7.09901 51.346 6.45594C51.8333 5.96076 52.286 5.64937 52.6678 5.5466C53.0939 5.43171 53.2482 5.31419 53.2482 5.10383C53.2482 4.82981 53.1332 4.81755 50.5475 4.81755C48.0009 4.81755 47.8467 4.83317 47.8467 5.09215C47.8467 5.29565 48.0162 5.40952 48.5013 5.53171C48.9205 5.63711 49.2422 5.82821 49.3959 6.06281C49.8456 6.74908 49.6041 7.52631 47.8209 11.1319L46.1567 14.4968L45.413 13.1974C43.8844 10.5265 41.8613 6.54164 41.8613 6.20178C41.8613 5.79302 42.1679 5.59521 43.011 5.46047C43.4679 5.38748 43.6132 5.29828 43.6132 5.09084C43.6132 4.83142 43.4361 4.81755 40.1095 4.81755C36.7402 4.81755 36.6059 4.82835 36.6059 5.10062ZM53.6862 5.09273C53.6862 5.31828 53.8375 5.38675 54.5256 5.47244C54.9873 5.52996 55.4777 5.63711 55.6153 5.71054C56.1133 5.97638 56.1873 6.79127 56.1405 11.4926C56.0872 16.8241 56.1521 16.6053 54.5825 16.7476C53.8349 16.8154 53.6862 16.874 53.6862 17.1006C53.6862 17.3618 53.9575 17.3723 60.6824 17.3723H67.6786L68.2736 15.8504C68.6009 15.0135 68.8686 14.258 68.8686 14.1716C68.8686 13.8793 67.9073 13.9976 67.6139 14.3259C67.114 14.885 65.3491 16.0432 64.5085 16.3635C63.5977 16.7105 61.4704 16.8942 60.3343 16.7238C59.1358 16.5441 59.0876 16.4246 59.0876 13.6324V11.2065L60.9489 11.2686C62.3291 11.3148 62.9323 11.3954 63.2822 11.5803C63.78 11.8435 64.1971 12.484 64.1971 12.9854C64.1971 13.2206 64.2908 13.2847 64.6351 13.2847H65.073V10.8759V8.46719H64.6351C64.2504 8.46719 64.1971 8.51799 64.1971 8.88543C64.1971 9.11551 64.0599 9.47813 63.8923 9.69127C63.3365 10.3977 62.8126 10.5605 60.8721 10.6291L59.08 10.6924L59.1203 8.39098L59.1606 6.08952L59.573 5.78193C60.1717 5.33565 62.5048 5.35784 64.0511 5.8247C65.2494 6.18645 66.7485 6.9577 67.1797 7.43419C67.3533 7.62587 67.6335 7.73726 67.9424 7.73726C68.211 7.73726 68.4307 7.71317 68.4307 7.68383C68.4307 7.65448 68.1308 6.99755 67.7644 6.22397L67.0983 4.81755H60.3921C53.9202 4.81755 53.6862 4.82718 53.6862 5.09273ZM69.0146 5.09667C69.0146 5.30543 69.1527 5.3993 69.5621 5.46879C69.8632 5.52003 70.438 5.73945 70.8394 5.95667L71.5694 6.35142L71.6082 10.4933C71.6467 14.6174 71.6454 14.6386 71.2895 15.4159C70.9145 16.2354 70.2494 16.7867 69.6351 16.7878C69.4041 16.7882 69.3066 16.8751 69.3066 17.0803C69.3066 17.3624 69.404 17.3723 72.1533 17.3723C74.838 17.3723 75 17.3567 75 17.099C75 16.8933 74.8565 16.8027 74.4199 16.7329C73.6586 16.6111 72.8586 15.9041 72.6638 15.1806C72.5737 14.8463 72.5289 13.1438 72.5523 10.9463L72.5913 7.27113L74.2028 8.78164C75.0891 9.61229 76.4358 10.8447 77.1955 11.5203C77.9551 12.1958 79.365 13.4843 80.3285 14.3832C83.2559 17.1151 83.9337 17.6643 84.3786 17.6643H84.781V12.2555C84.781 7.70645 84.8162 6.77872 85.0025 6.41857C85.2521 5.93594 85.7749 5.62076 86.5745 5.47069C86.9729 5.39594 87.1168 5.2958 87.1168 5.09332C87.1168 4.83156 86.9578 4.81755 83.9781 4.81755C80.9984 4.81755 80.8394 4.83156 80.8394 5.09332C80.8394 5.2958 80.9834 5.39594 81.3818 5.47069C82.0375 5.59375 82.6911 5.91127 83.1526 6.33098C83.8632 6.9774 83.9051 7.21886 83.9051 10.6632V13.8958L83.2117 13.3151C82.8304 12.9957 80.5664 10.953 78.1809 8.77594L73.8437 4.81755H71.4291C69.1489 4.81755 69.0146 4.83302 69.0146 5.09667ZM88.1935 5.07302C88.1483 5.21346 88.0561 5.49273 87.9886 5.69346C87.8225 6.18777 87.4088 7.68806 87.4088 7.79624C87.4088 7.84412 87.5774 7.88324 87.7835 7.88324C88.012 7.88324 88.479 7.62208 88.9789 7.21492C90.3333 6.11156 91.3637 5.68105 93.1387 5.47697L93.9781 5.38047V10.614C93.9781 16.4481 93.9932 16.3568 92.9885 16.6359C92.6897 16.7189 92.199 16.787 91.8978 16.7875C91.4481 16.7882 91.3504 16.8405 91.3504 17.0803C91.3504 17.3654 91.4478 17.3723 95.4486 17.3723C99.2629 17.3723 99.5435 17.3548 99.4981 17.1184C99.4713 16.9789 99.3514 16.8517 99.232 16.8358C99.1124 16.8199 98.6943 16.7646 98.3028 16.7129C97.8387 16.6517 97.4705 16.4984 97.2444 16.2723L96.8978 15.9257V10.6624V5.39901L97.7373 5.48354C99.8975 5.70105 100.942 6.125 102.001 7.21405C102.468 7.69375 102.767 7.88324 103.06 7.88324C103.284 7.88324 103.467 7.83945 103.467 7.78587C103.467 7.73229 103.294 7.04251 103.081 6.25302L102.696 4.81755H95.4856C88.7475 4.81755 88.2701 4.83434 88.1935 5.07302ZM38.8508 5.9647C39.1594 6.46032 41.8799 11.5186 43.8758 15.3076C44.6209 16.7222 44.7714 16.9257 44.9013 16.6945C45.0628 16.4069 44.6889 15.6402 41.2825 9.27229C39.6701 6.25828 39.2542 5.62514 38.8107 5.50908C38.5314 5.43609 38.533 5.45405 38.8508 5.9647ZM49.7878 5.89989C50.1086 6.39711 50.1101 6.39755 50.3497 6.09156C50.4818 5.92295 50.7079 5.69872 50.852 5.59317C51.0799 5.4266 51.0063 5.40149 50.2901 5.40149H49.466L49.7878 5.89989ZM64.7831 5.44091C64.8221 5.47375 65.2355 5.70397 65.7018 5.95244L66.5495 6.40427L66.2562 5.93945C66.0124 5.55302 65.8573 5.4666 65.3375 5.42792C64.9936 5.40237 64.7441 5.40821 64.7831 5.44091ZM71.3504 5.62864C71.9594 6.06762 72.6539 6.68076 74.5621 8.46397C75.5657 9.40208 76.9781 10.6959 77.7008 11.3394C78.4234 11.983 79.7078 13.16 80.5548 13.9554C81.4019 14.7508 82.5022 15.7529 83 16.1824C83.7724 16.8486 83.9051 16.918 83.9051 16.6546C83.9051 16.2638 83.5451 15.8951 80.3285 12.9907C78.8832 11.6857 76.6689 9.66923 75.4076 8.50967C72.677 5.99886 72.1241 5.54748 71.7802 5.54748C71.6372 5.54748 71.3999 5.5066 71.2529 5.45653C71.0851 5.39945 71.1216 5.46368 71.3504 5.62864ZM83.2923 5.83521L83.8911 6.26908L84.3248 5.83521L84.7586 5.40149H83.726H82.6935L83.2923 5.83521ZM88.4796 5.99113C88.3356 6.5304 88.3424 6.56251 88.559 6.36748C88.6891 6.25025 89.0913 5.98573 89.4526 5.77974L90.1095 5.40499L89.3733 5.40324L88.637 5.40149L88.4796 5.99113ZM100.521 5.62324C100.787 5.73901 101.202 5.97361 101.442 6.14441C101.682 6.31536 101.902 6.43171 101.93 6.40281C101.959 6.37405 101.893 6.13697 101.783 5.87594C101.593 5.42427 101.546 5.40178 100.81 5.40719L100.037 5.41288L100.521 5.62324ZM56.4078 5.80295C56.4765 5.94339 56.551 8.3174 56.5732 11.0783C56.6085 15.4923 56.585 16.1415 56.3783 16.4571C56.1492 16.8067 56.1518 16.8133 56.484 16.7143C57.1844 16.5059 57.1898 16.4631 57.1898 11.0897C57.1898 6.37405 57.1717 6.01434 56.9228 5.78908C56.5597 5.46047 56.2441 5.46894 56.4078 5.80295ZM94.4454 10.7605C94.4856 15.5724 94.468 16.0298 94.2302 16.393C94.0235 16.7086 94.013 16.7884 94.1775 16.7884C94.291 16.7884 94.524 16.6733 94.6954 16.5329C95.0044 16.2794 95.0066 16.2355 94.9669 10.9508C94.9295 5.95638 94.9107 5.6212 94.6644 5.5739C94.4148 5.52587 94.4038 5.78368 94.4454 10.7605ZM29.3066 8.17521C29.1059 8.33229 28.8676 8.46222 28.777 8.46397C28.6864 8.46572 28.5482 8.54937 28.4697 8.64967C28.3641 8.78456 28.5305 8.93054 29.1088 9.20981L29.8905 9.58762V8.73536C29.8905 8.26675 29.8412 7.8847 29.781 7.88646C29.7209 7.88821 29.5073 8.01813 29.3066 8.17521ZM63.4228 10.6485L63.0133 10.9107L63.5323 11.2168L64.0511 11.5231V10.944C64.0511 10.2973 64.0051 10.2755 63.4228 10.6485ZM33.1022 15.9415C32.8212 16.0886 32.1643 16.3676 31.6424 16.5615L30.6935 16.914L31.8949 16.9241L33.0962 16.9343L33.4013 16.3362C33.5692 16.0073 33.6856 15.7237 33.6599 15.7062C33.6342 15.6885 33.3832 15.7945 33.1022 15.9415ZM65.7299 16.4316L64.854 16.771L65.6037 16.7797C66.2472 16.7872 66.3872 16.7367 66.5924 16.4234C66.8745 15.9929 66.8618 15.993 65.7299 16.4316ZM71.3504 16.4234L71.0075 16.7884H71.9428H72.878L72.3409 16.4234C72.0456 16.2227 71.779 16.0584 71.7485 16.0584C71.7181 16.0584 71.539 16.2227 71.3504 16.4234ZM0.255493 17.4168C0.255493 17.73 0.3425 17.7641 1.50878 17.9085C2.86454 18.0765 3.46075 18.3806 3.6317 18.9913C3.76002 19.4504 3.76002 31.9365 3.6317 32.3957C3.42717 33.1266 2.65403 33.4043 0.364982 33.5688C0.30469 33.5732 0.255493 33.7413 0.255493 33.9427V34.3086L9.77695 34.2711L19.2986 34.2336L20.28 32.1168C20.8199 30.9526 21.265 29.9507 21.2694 29.8905C21.2737 29.8304 20.9461 29.7811 20.5413 29.7811C19.8358 29.7811 19.7549 29.8251 18.5851 30.8479C16.3069 32.8396 14.62 33.4467 11.3356 33.4573C9.63987 33.4627 9.25111 33.4199 8.67082 33.1631C8.21783 32.9628 7.94163 32.7316 7.84192 32.4691C7.74542 32.2154 7.70673 29.724 7.73301 25.457L7.77374 18.8386L8.13885 18.4735C8.52002 18.0924 9.5844 17.8102 10.6403 17.8102C11.1447 17.8102 11.2044 17.7716 11.2044 17.4453V17.0803H5.72995H0.255493V17.4168ZM3.64965 17.9539C4.32922 18.3869 4.34308 18.5448 4.34308 25.8434V32.7232L3.91637 33.15C3.55622 33.51 3.53199 33.5767 3.7609 33.5767C4.33768 33.5767 4.79914 33.2771 5.01374 32.7634C5.19958 32.3186 5.22586 31.2133 5.18922 25.394C5.14703 18.7057 5.13914 18.5411 4.84527 18.2475C4.67987 18.0821 4.28571 17.9119 3.96936 17.8691C3.50965 17.8067 3.44542 17.8238 3.64965 17.9539ZM19.4073 22.0073C19.4453 22.204 19.6743 22.2894 20.4035 22.3786C21.9949 22.5732 21.9221 22.3444 22.0073 27.4126C22.0752 31.4485 22.1012 31.7875 22.3791 32.2606C23.0673 33.432 24.7426 34.2146 27.0796 34.4564C29.8504 34.7431 32.5654 34.091 33.8186 32.8378C34.7456 31.9108 34.77 31.7955 34.8669 27.8832C34.9264 25.4752 35.0194 24.1244 35.1513 23.7489C35.3907 23.0675 36.0056 22.5254 36.6831 22.3983C37.0489 22.3297 37.1898 22.2266 37.1898 22.0276C37.1898 21.7665 37.0352 21.7519 34.2701 21.7519C31.4478 21.7519 31.3504 21.7616 31.3504 22.0438C31.3504 22.2643 31.4488 22.3365 31.7518 22.339C32.5175 22.3451 33.3527 22.852 33.7127 23.5292C34.0276 24.1215 34.0516 24.3557 34.0983 27.312C34.1583 31.0977 34.0848 31.4806 33.1202 32.4154C32.2292 33.2786 31.1593 33.6336 29.4526 33.6324C27.1843 33.6307 25.7713 33.0135 25.211 31.7793C24.9599 31.2262 24.9332 30.7821 24.9302 27.1168C24.9264 22.2653 24.8269 22.5184 26.8234 22.3022C27.033 22.2794 27.2075 22.1546 27.2355 22.0073C27.2809 21.7691 27.0167 21.7519 23.3212 21.7519C19.6254 21.7519 19.3615 21.7691 19.4073 22.0073ZM37.9197 22.0202C37.9197 22.2419 38.0637 22.3121 38.6638 22.3832C39.073 22.4317 39.6149 22.5923 39.8682 22.7402L40.3285 23.0089L40.372 27.2345C40.3999 29.9453 40.3593 31.6538 40.2586 32.0008C40.0416 32.7489 39.4616 33.3911 38.9012 33.5038C38.0389 33.6773 37.9197 33.7405 37.9197 34.0244C37.9197 34.2939 38.051 34.3066 40.8394 34.3066C43.6393 34.3066 43.7591 34.2949 43.7591 34.0212C43.7591 33.8065 43.6238 33.7114 43.2117 33.6368C42.3793 33.486 41.9238 33.2009 41.547 32.5948C41.2118 32.0557 41.2035 31.9558 41.1631 27.9562L41.1218 23.8686L43.0989 27.6643C44.1863 29.7519 45.2424 31.7555 45.4456 32.1168C45.6486 32.4781 45.9901 33.1187 46.2043 33.5402C46.5208 34.1629 46.6632 34.3063 46.9647 34.305C47.3781 34.3031 47.0594 34.859 50.7717 27.6643L52.8054 23.7227L52.8079 28.2717L52.8102 32.8208L52.361 33.1987C52.114 33.4066 51.7692 33.5775 51.5946 33.5787C50.9879 33.5825 50.6205 33.7533 50.6205 34.0317C50.6205 34.2938 50.7946 34.3066 54.3431 34.3066C57.9114 34.3066 58.0657 34.2951 58.0657 34.0275C58.0657 33.8113 57.9259 33.727 57.4453 33.6536C56.4952 33.5085 56.0105 33.2738 55.8637 32.8875C55.6807 32.4065 55.691 23.6251 55.8751 23.1412C56.0438 22.697 56.7952 22.3358 57.5501 22.3358C57.9683 22.3358 58.0657 22.2808 58.0657 22.0438C58.0657 21.7631 57.9683 21.7519 55.541 21.7519H53.0164L51.346 24.927C50.4272 26.6735 49.3462 28.7424 48.9435 29.5247C48.541 30.307 48.1789 30.9451 48.1387 30.9427C48.0986 30.9402 46.9761 28.8876 45.6444 26.3815L43.2231 21.8248L40.5714 21.785C38.0577 21.7473 37.9197 21.7596 37.9197 22.0202ZM59.3796 22.0438C59.3796 22.2792 59.477 22.3358 59.881 22.3358C60.5136 22.3358 61.0361 22.5324 61.4175 22.9139C61.7053 23.2016 61.7154 23.3749 61.7154 28.0358V32.86L61.357 33.2183C61.1599 33.4154 60.8397 33.5767 60.6453 33.5767C59.8736 33.5767 59.3796 33.7548 59.3796 34.0329C59.3796 34.2935 59.5612 34.3066 63.1752 34.3066C66.8513 34.3066 66.9708 34.2975 66.9708 34.0196C66.9708 33.7847 66.8356 33.7148 66.2247 33.6338C65.7724 33.5738 65.3267 33.4043 65.0933 33.2035L64.7081 32.8723L64.6656 28.3409C64.6422 25.8485 64.678 23.5927 64.745 23.3281C64.8907 22.7529 65.5954 22.3364 66.4234 22.3361C66.8735 22.3358 66.9708 22.2838 66.9708 22.0438C66.9708 21.7593 66.8735 21.7519 63.1752 21.7519C59.477 21.7519 59.3796 21.7593 59.3796 22.0438ZM67.9927 22.0254C67.9927 22.2621 68.1292 22.3105 68.9434 22.3624C70.4853 22.4605 70.3946 22.1269 70.4435 27.8894L70.4856 32.8489L70.1438 33.1907C69.8932 33.4413 69.5608 33.5597 68.8974 33.6348C68.1327 33.7213 67.9927 33.7812 67.9927 34.0219C67.9927 34.3002 68.1494 34.3066 74.9841 34.3066H81.9756L82.2225 33.6862C82.3581 33.3448 82.5583 32.8686 82.6672 32.6278C82.9269 32.0527 83.3212 31.074 83.3212 31.0041C83.3212 30.9738 83.0895 30.9489 82.8063 30.9489C82.3968 30.9489 82.0907 31.1148 81.31 31.7597C79.9254 32.9035 78.8466 33.3984 77.3059 33.5965C75.8437 33.7846 74.0835 33.5984 73.6999 33.2154C73.5102 33.0259 73.4581 32.5387 73.4181 30.579L73.3691 28.1752H75.1755C76.7586 28.1752 77.0625 28.2158 77.6333 28.5037C78.1857 28.7822 78.318 28.9374 78.5037 29.5248C78.6949 30.1297 78.7736 30.2175 79.1241 30.2183L79.5256 30.219V27.8102V25.4015H79.0876C78.7837 25.4015 78.6497 25.4729 78.6497 25.6349C78.6497 25.7632 78.5397 26.1 78.4053 26.3834C78.0116 27.213 77.3232 27.4383 75.1691 27.4421L73.3675 27.4453L73.4173 25.2593C73.481 22.4679 73.5051 22.4332 75.4424 22.3577C77.6286 22.2726 79.905 22.9684 81.3713 24.17C81.7748 24.5005 82.137 24.6716 82.4333 24.6716C82.6808 24.6716 82.8816 24.6551 82.8797 24.6351C82.8778 24.6151 82.5597 23.9745 82.1729 23.2117L81.4694 21.8248L74.731 21.7869C68.2031 21.7501 67.9927 21.7575 67.9927 22.0254ZM83.9051 22.0235C83.9051 22.2497 84.053 22.3086 84.7863 22.3752C85.2708 22.4192 85.8292 22.5611 86.0272 22.6907L86.3869 22.9265L86.3847 27.9231C86.3834 30.6713 86.3342 32.992 86.2752 33.0803C86.0791 33.3739 85.5373 33.5767 84.9486 33.5767C84.1787 33.5767 83.9051 33.6957 83.9051 34.0303C83.9051 34.2946 84.0767 34.3066 87.8467 34.3066C91.6307 34.3066 91.7883 34.2954 91.7883 34.0275C91.7883 33.8114 91.6481 33.7266 91.1679 33.6523C89.398 33.3784 89.3066 33.2229 89.3066 30.4892V28.6132H90.0462C90.4529 28.6132 90.9291 28.6878 91.1045 28.779C91.2799 28.8703 92.4416 29.9378 93.6862 31.1514C96.5895 33.9828 96.9631 34.1949 99.1962 34.2805C100.783 34.3412 100.839 34.3329 100.839 34.0399C100.839 33.819 100.654 33.6545 100.16 33.4359C99.6314 33.2019 97.9368 31.9016 97.4818 31.3805C97.4416 31.3345 96.694 30.647 95.8205 29.8527L94.2321 28.4084L94.9445 28.2424C96.02 27.9916 96.6551 27.678 97.3419 27.058C99.0197 25.544 98.6402 23.5719 96.4599 22.4757C95.119 21.8015 94.6516 21.7554 89.1241 21.7536C84.1317 21.752 83.9051 21.7637 83.9051 22.0235ZM101.277 22.0438C101.277 22.2965 101.375 22.3358 102 22.3358C102.887 22.3358 103.384 22.5475 103.597 23.0157C103.705 23.253 103.759 24.9497 103.759 28.1158V32.86L103.423 33.1962C103.178 33.4408 102.84 33.5603 102.182 33.6348C101.416 33.7215 101.277 33.7809 101.277 34.0232C101.277 34.304 101.41 34.3086 108.314 34.2716L115.351 34.2336L115.966 32.6278L116.581 31.0219L116.074 30.9761C115.67 30.9396 115.458 31.0281 115.026 31.414C114.124 32.2209 112.928 32.9745 112.08 33.2695C110.359 33.8688 107.477 33.7885 106.934 33.1263C106.715 32.8583 106.679 32.4878 106.679 30.4948V28.1752H108.473C110.043 28.1752 110.348 28.2162 110.918 28.5037C111.47 28.7822 111.603 28.9374 111.788 29.5248C111.98 30.1297 112.058 30.2175 112.409 30.2183L112.81 30.219V27.8102V25.4015H112.388C112.026 25.4015 111.954 25.4701 111.876 25.8869C111.774 26.431 111.194 27.0559 110.574 27.29C110.348 27.3754 109.379 27.4453 108.421 27.4453H106.679V25.3367C106.679 23.3183 106.694 23.2104 107.031 22.8184C107.361 22.4346 107.467 22.4056 108.71 22.3577C110.917 22.2729 112.979 22.8967 114.6 24.139C115.318 24.6892 116.022 24.8456 116.022 24.4548C116.022 24.3355 115.745 23.6786 115.405 22.9949L114.789 21.7519H108.033C101.375 21.7519 101.277 21.7561 101.277 22.0438ZM22.218 22.6603C22.4104 22.9349 22.4457 23.613 22.4485 27.0764C22.4514 30.73 22.4803 31.2311 22.7197 31.7578C23.0339 32.4495 23.6659 33.0192 24.5555 33.4127C25.5643 33.859 25.944 33.9136 25.1768 33.5022C24.2257 32.9921 23.3723 32.1053 23.1856 31.4329C23.0942 31.1038 23.0305 29.2481 23.0301 26.8978C23.0292 23.1149 23.0149 22.9054 22.7372 22.6278C22.5767 22.4672 22.3429 22.3358 22.218 22.3358C22.0123 22.3358 22.0123 22.3666 22.218 22.6603ZM33.7813 22.8206C34.131 23.2282 34.2178 23.2688 34.327 23.0761C34.3984 22.95 34.5565 22.7319 34.6781 22.5913C34.885 22.3523 34.8497 22.3358 34.1323 22.3358H33.3654L33.7813 22.8206ZM40.7768 22.7142C41.0235 22.9476 41.4587 23.5657 41.744 24.0876C42.6732 25.7876 45.3954 30.8454 46.0654 32.1168C46.8599 33.6244 46.9708 33.7593 46.9708 33.2173C46.9708 32.9812 46.5025 31.905 45.894 30.7428C45.3018 29.6117 44.1812 27.4708 43.4037 25.9854C41.924 23.1583 41.4904 22.5678 40.7664 22.3945L40.3285 22.2897L40.7768 22.7142ZM53.6862 22.4786C53.5005 22.5958 53.4561 23.4132 53.3942 27.8627C53.3248 32.8469 53.3066 33.1248 53.0292 33.4351L52.7372 33.7615L53.1022 33.6513C53.6453 33.4872 53.8159 33.3048 53.9029 32.7957C54.0041 32.2046 54.0749 22.3349 53.9781 22.338C53.938 22.3392 53.8066 22.4025 53.6862 22.4786ZM62.0073 22.553C62.1897 22.7738 62.2339 23.6012 62.2714 27.504C62.3186 32.4105 62.2837 32.9875 61.9181 33.353C61.7173 33.5539 61.7189 33.5767 61.9335 33.5767C62.065 33.5767 62.2996 33.5086 62.4549 33.4256C62.7259 33.2805 62.7371 33.0681 62.7351 28.1336C62.7337 25.3062 62.6845 22.9205 62.6256 22.8321C62.5666 22.7438 62.354 22.5851 62.1533 22.4797C61.8089 22.2989 61.8008 22.303 62.0073 22.553ZM70.6851 22.6603C70.8802 22.9386 70.9124 23.6968 70.9124 27.9983C70.9124 31.1752 70.8571 33.1154 70.7613 33.2943C70.5876 33.6189 70.7596 33.6688 71.214 33.4256C71.4851 33.2805 71.4964 33.0656 71.4964 28.0324V22.7903L71.1718 22.5631C70.6686 22.2105 70.4067 22.2628 70.6851 22.6603ZM79.9799 22.7583C80.4124 22.9905 80.7881 23.1605 80.8146 23.1359C80.841 23.1113 80.7514 22.9211 80.6154 22.7135C80.4171 22.4108 80.2513 22.3358 79.7806 22.3358H79.1932L79.9799 22.7583ZM86.6197 22.6428C86.8796 22.9298 86.9007 23.2705 86.9416 27.8321C86.9783 31.9041 86.9498 32.7857 86.7704 33.1454C86.5454 33.5965 86.6513 33.6799 87.1264 33.4256C87.3974 33.2805 87.4088 33.0663 87.4088 28.0971C87.4088 23.1143 87.3978 22.9088 87.1168 22.6278C86.9562 22.4672 86.7161 22.3358 86.5832 22.3358C86.3699 22.3358 86.3743 22.3719 86.6197 22.6428ZM90.1044 22.4748C89.4421 22.7432 89.3822 22.9834 89.3279 25.5923L89.2762 28.0742L90.8102 27.9751C93.2158 27.8194 94.4476 27.34 94.9022 26.3821C95.1967 25.7616 95.218 24.6885 94.9488 24.0441C94.688 23.4202 93.8289 22.6811 93.1426 22.4905C92.4964 22.3111 90.5333 22.3009 90.1044 22.4748ZM103.992 22.6428C104.252 22.9295 104.273 23.2691 104.314 27.7394C104.351 31.7373 104.322 32.6157 104.139 33.0529C103.934 33.5427 103.937 33.5767 104.187 33.5767C104.83 33.5767 104.854 33.3764 104.854 27.9939V22.8939L104.509 22.6149C104.32 22.4613 104.063 22.3358 103.939 22.3358C103.753 22.3358 103.762 22.3888 103.992 22.6428ZM113.248 22.7665C113.69 22.9957 114.074 23.1613 114.102 23.1345C114.13 23.1076 114.031 22.919 113.883 22.7154C113.671 22.4246 113.488 22.3454 113.029 22.3473L112.445 22.3495L113.248 22.7665ZM94.8647 23.0593C95.9237 24.1726 95.9691 26.0708 94.9618 27.1168C94.4445 27.6538 94.5321 27.7241 95.2018 27.3094C95.9279 26.8597 96.2374 26.2034 96.2393 25.1095C96.2412 23.9521 95.9007 23.2862 95.0648 22.8127C94.2645 22.3594 94.2343 22.3967 94.8647 23.0593ZM77.8467 27.5221C77.5256 27.7199 77.3689 27.8821 77.4986 27.8825C77.6282 27.8829 77.9075 28.0194 78.119 28.1859L78.5037 28.4884V27.8209C78.5037 27.4538 78.4873 27.1554 78.4672 27.1578C78.447 27.1603 78.1679 27.3243 77.8467 27.5221ZM111.014 27.5454L110.605 27.7608L111.154 28.0409C111.457 28.1951 111.725 28.3212 111.751 28.3212C111.777 28.3212 111.782 28.0913 111.763 27.8102C111.726 27.2539 111.632 27.2208 111.014 27.5454ZM92.8079 29.6418C93.45 30.2076 94.1876 30.9348 94.4472 31.2577C95.1358 32.1146 96.7586 33.3945 97.4784 33.6485C98.365 33.9613 98.36 33.9381 97.3965 33.2684C96.9215 32.9383 95.604 31.7558 94.4688 30.6406C92.8768 29.077 92.3171 28.6132 92.0225 28.6132C91.6848 28.6132 91.7758 28.7324 92.8079 29.6418ZM18.126 32.0073C17.8967 32.1881 17.1816 32.613 16.537 32.952L15.365 33.5682L16.4692 33.5724L17.5735 33.5767L18.1009 32.6278C18.391 32.1059 18.6091 31.6789 18.5857 31.6789C18.5622 31.6789 18.3553 31.8266 18.126 32.0073ZM40.0428 33.2781L39.617 33.7227H40.4751C41.1942 33.7227 41.2937 33.6932 41.0895 33.5402C40.9555 33.4399 40.7609 33.2397 40.6572 33.0956C40.4808 32.8503 40.4416 32.8618 40.0428 33.2781ZM80.1095 33.3047L79.1606 33.7133L79.9765 33.718C80.7181 33.7222 80.8085 33.6876 80.9675 33.3389C81.0637 33.1278 81.1235 32.9418 81.1003 32.9254C81.0772 32.9092 80.6314 33.0799 80.1095 33.3047ZM113.905 33.0799C113.664 33.1888 113.237 33.3727 112.956 33.4884L112.445 33.6989L113.261 33.7107C114.006 33.7216 114.093 33.6891 114.252 33.3389C114.472 32.8571 114.444 32.8362 113.905 33.0799Z" fill="white"/>
</svg>
