<svg width="147" height="44" viewBox="0 0 147 44" fill="none" xmlns="http://www.w3.org/2000/svg">
<path fill-rule="evenodd" clip-rule="evenodd" d="M22.6423 0.862434C22.6423 1.22278 22.713 1.24928 23.9614 1.35816C25.1945 1.46575 25.3149 1.50975 25.8081 2.03277L26.3358 2.59208V9.89528C26.3358 17.9503 26.3362 17.9465 25.3531 18.2892C25.0723 18.387 24.5734 18.4671 24.2443 18.4671C23.0958 18.4671 22.6423 18.6318 22.6423 19.0492V19.4306H33.1564H43.6706L43.9276 18.9334C44.2494 18.3112 45.6058 14.8135 45.6058 14.606C45.6058 14.5215 45.2627 14.4538 44.8431 14.4552C44.1452 14.4578 43.9912 14.5365 43.0322 15.3794C40.7666 17.3708 39.0636 18.187 36.5736 18.4751C35.0132 18.6556 32.9412 18.5622 31.905 18.2646C30.8552 17.9632 30.8321 17.8662 30.8321 13.7743V10.1167H33.0466C36.6555 10.1167 38.0589 10.6821 38.5344 12.3278C38.7341 13.0194 38.8388 13.1553 39.2332 13.2341C39.4884 13.2852 39.762 13.287 39.8414 13.238C39.9205 13.189 39.9854 11.5273 39.9854 9.54521V5.94154H39.3811C38.7855 5.94154 38.7738 5.95375 38.5792 6.77321C38.3556 7.71455 37.945 8.22697 37.0146 8.72623C36.4432 9.03278 36.0665 9.07678 33.6022 9.12528L30.8321 9.17972V5.82994C30.8321 2.08046 30.8654 1.95007 31.9165 1.578C32.7681 1.27642 36.0822 1.32443 37.4541 1.65829C39.3127 2.11033 40.9776 2.85512 42.3643 3.85492C43.4563 4.6421 43.8147 4.81746 44.3314 4.81746C44.6791 4.81746 44.9635 4.78036 44.9635 4.73492C44.9635 4.68947 44.4933 3.71392 43.9186 2.56703L42.8737 0.481689H32.758H22.6423V0.862434ZM26.4923 1.60176C26.6667 1.77616 26.8654 2.11932 26.9339 2.36454C27.0023 2.60959 27.0584 6.11016 27.0584 10.1435V17.4768L26.6923 17.972L26.3261 18.4671H26.7398C26.9672 18.4671 27.3306 18.2896 27.5474 18.0729L27.9416 17.6788V10.0332C27.9416 4.86354 27.8854 2.28264 27.7682 2.06344C27.6081 1.76443 26.7289 1.28461 26.3409 1.28461C26.2497 1.28461 26.3179 1.42737 26.4923 1.60176ZM40.146 1.7784C40.7201 2.04995 41.4427 2.42765 41.7518 2.61778L42.3139 2.96351L42.0328 2.52544C41.1739 1.18697 41.3208 1.28461 40.1677 1.28477L39.1022 1.28493L40.146 1.7784ZM45.7664 5.61058C45.7664 5.85563 45.9175 5.94459 46.4764 6.02826C46.8924 6.09073 47.3167 6.27765 47.501 6.47982C47.7838 6.78975 50.7593 12.2504 53.486 17.4634C55.0525 20.4583 54.753 20.695 58.2765 13.6802C60.7431 8.76991 61.2843 7.80881 61.9806 7.10144C62.5166 6.55674 63.0146 6.21421 63.4345 6.10116C63.9032 5.97478 64.073 5.84551 64.073 5.61411C64.073 5.3127 63.9464 5.29921 61.1022 5.29921C58.301 5.29921 58.1314 5.31639 58.1314 5.60127C58.1314 5.82512 58.3178 5.95038 58.8514 6.08478C59.3125 6.20073 59.6664 6.41093 59.8355 6.66899C60.3301 7.42389 60.0645 8.27884 58.103 12.2449L56.2723 15.9464L55.4543 14.517C53.7728 11.579 51.5474 7.1957 51.5474 6.82186C51.5474 6.37223 51.8847 6.15464 52.812 6.00642C53.3147 5.92613 53.4744 5.82801 53.4744 5.59982C53.4744 5.31446 53.2797 5.29921 49.6204 5.29921C45.9142 5.29921 45.7664 5.31109 45.7664 5.61058ZM64.5547 5.60191C64.5547 5.85001 64.7213 5.92532 65.4781 6.01959C65.986 6.08286 66.5254 6.20073 66.6769 6.2815C67.2246 6.57392 67.306 7.4703 67.2545 12.6417C67.1959 18.5064 67.2673 18.2657 65.5407 18.4223C64.7184 18.4968 64.5547 18.5614 64.5547 18.8106C64.5547 19.0979 64.8533 19.1094 72.2506 19.1094H79.9464L80.6009 17.4353C80.961 16.5147 81.2555 15.6837 81.2555 15.5886C81.2555 15.2671 80.198 15.3972 79.8753 15.7584C79.3254 16.3734 77.3839 17.6475 76.4593 17.9998C75.4574 18.3815 73.1174 18.5835 71.8677 18.3961C70.5493 18.1984 70.4963 18.0669 70.4963 14.9956V12.327L72.5438 12.3954C74.062 12.4462 74.7255 12.5348 75.1104 12.7383C75.658 13.0278 76.1168 13.7323 76.1168 14.2839C76.1168 14.5426 76.2199 14.6131 76.5985 14.6131H77.0803V11.9634V9.31381H76.5985C76.1754 9.31381 76.1168 9.36969 76.1168 9.77388C76.1168 10.027 75.9658 10.4259 75.7815 10.6603C75.1701 11.4374 74.5938 11.6164 72.4593 11.6919L70.488 11.7616L70.5323 9.22998L70.5766 6.69838L71.0303 6.36002C71.6888 5.86912 74.2553 5.89353 75.9562 6.40708C77.2743 6.805 78.9233 7.65337 79.3977 8.17751C79.5886 8.38836 79.8968 8.51089 80.2366 8.51089C80.532 8.51089 80.7737 8.48439 80.7737 8.45211C80.7737 8.41984 80.4439 7.69721 80.0408 6.84627L79.3081 5.29921H71.9313C64.8122 5.29921 64.5547 5.30981 64.5547 5.60191ZM81.4161 5.60624C81.4161 5.83588 81.568 5.93913 82.0182 6.01557C82.3495 6.07194 82.9817 6.3133 83.4233 6.55224L84.2263 6.98646L84.269 11.5426C84.3114 16.079 84.3099 16.1023 83.9184 16.9574C83.5059 17.8588 82.7743 18.4653 82.0985 18.4664C81.8445 18.4669 81.7372 18.5625 81.7372 18.7883C81.7372 19.0985 81.8443 19.1094 84.8686 19.1094C87.8217 19.1094 88 19.0922 88 18.8088C88 18.5826 87.8421 18.4828 87.3618 18.4061C86.5244 18.2721 85.6444 17.4944 85.4302 16.6986C85.3311 16.3308 85.2818 14.4581 85.3075 12.0408L85.3504 7.99814L87.123 9.6597C88.0979 10.5734 89.5793 11.9291 90.415 12.6723C91.2505 13.4153 92.8015 14.8326 93.8613 15.8215C97.0815 18.8265 97.8271 19.4306 98.3164 19.4306H98.7591V13.481C98.7591 8.477 98.7978 7.45649 99.0027 7.06033C99.2773 6.52944 99.8524 6.18274 100.732 6.01766C101.17 5.93544 101.328 5.82528 101.328 5.60255C101.328 5.31462 101.154 5.29921 97.8759 5.29921C94.5982 5.29921 94.4233 5.31462 94.4233 5.60255C94.4233 5.82528 94.5817 5.93544 95.0199 6.01766C95.7413 6.15303 96.4602 6.5023 96.9678 6.96398C97.7495 7.67505 97.7956 7.94065 97.7956 11.7295V15.2853L97.0328 14.6465C96.6134 14.2951 94.1231 12.0482 91.499 9.65344L86.728 5.29921H84.072C81.5638 5.29921 81.4161 5.31623 81.4161 5.60624ZM102.513 5.58023C102.463 5.73471 102.362 6.04191 102.287 6.26271C102.105 6.80645 101.65 8.45677 101.65 8.57576C101.65 8.62843 101.835 8.67147 102.062 8.67147C102.313 8.67147 102.827 8.38419 103.377 7.93632C104.867 6.72262 106 6.24906 107.953 6.02457L108.876 5.91842V11.6754C108.876 18.0928 108.892 17.9924 107.787 18.2994C107.459 18.3907 106.919 18.4656 106.588 18.4661C106.093 18.4669 105.985 18.5244 105.985 18.7883C105.985 19.1019 106.092 19.1094 110.493 19.1094C114.689 19.1094 114.998 19.0902 114.948 18.8302C114.918 18.6767 114.787 18.5368 114.655 18.5193C114.524 18.5018 114.064 18.4409 113.633 18.3841C113.123 18.3168 112.718 18.1482 112.469 17.8994L112.088 17.5182V11.7285V5.93881L113.011 6.03179C115.387 6.27106 116.536 6.7374 117.701 7.93535C118.215 8.46303 118.544 8.67147 118.866 8.67147C119.112 8.67147 119.314 8.6233 119.314 8.56436C119.314 8.50543 119.123 7.74667 118.89 6.87823L118.465 5.29921H110.534C103.122 5.29921 102.597 5.31768 102.513 5.58023ZM48.2359 6.56108C48.5754 7.10626 51.5678 12.6703 53.7633 16.8383C54.583 18.3943 54.7485 18.6182 54.8914 18.3638C55.069 18.0475 54.6578 17.2041 50.9107 10.1994C49.1371 6.88401 48.6796 6.18756 48.1917 6.05989C47.8845 5.9796 47.8863 5.99935 48.2359 6.56108ZM60.2665 6.48978C60.6195 7.03673 60.6211 7.03721 60.8846 6.70062C61.0299 6.51515 61.2787 6.26849 61.4372 6.15239C61.6878 5.96916 61.6069 5.94154 60.8191 5.94154H59.9126L60.2665 6.48978ZM76.7614 5.9849C76.8042 6.02103 77.259 6.27427 77.7719 6.54759L78.7044 7.04459L78.3818 6.5333C78.1136 6.10823 77.9429 6.01316 77.3713 5.97061C76.9929 5.94251 76.7185 5.94893 76.7614 5.9849ZM83.9854 6.19141C84.6553 6.67429 85.4193 7.34874 87.5182 9.31027C88.6223 10.3422 90.1759 11.7654 90.9708 12.4733C91.7657 13.1811 93.1785 14.4759 94.1102 15.3508C95.0421 16.2258 96.2524 17.3281 96.8 17.8005C97.6496 18.5334 97.7956 18.6097 97.7956 18.32C97.7956 17.8901 97.3996 17.4845 93.8613 14.2897C92.2715 12.8542 89.8358 10.6361 88.4483 9.36054C85.4446 6.59865 84.8365 6.10213 84.4581 6.10213C84.3009 6.10213 84.0398 6.05716 83.8781 6.00208C83.6936 5.9393 83.7338 6.00995 83.9854 6.19141ZM97.1215 6.41864L97.7802 6.89589L98.2573 6.41864L98.7344 5.94154H97.5986H96.4628L97.1215 6.41864ZM102.828 6.59014C102.669 7.18334 102.677 7.21867 102.915 7.00413C103.058 6.87518 103.5 6.5842 103.898 6.35762L104.62 5.9454L103.811 5.94347L103.001 5.94154L102.828 6.59014ZM116.073 6.18547C116.366 6.31281 116.822 6.57087 117.086 6.75876C117.35 6.9468 117.592 7.07478 117.623 7.04299C117.655 7.01135 117.582 6.75057 117.461 6.46344C117.252 5.96659 117.201 5.94186 116.391 5.94781L115.54 5.95407L116.073 6.18547ZM67.5485 6.38315C67.6241 6.53763 67.706 9.14905 67.7304 12.186C67.7693 17.0414 67.7435 17.7555 67.5161 18.1027C67.2641 18.4873 67.267 18.4946 67.6323 18.3857C68.4028 18.1564 68.4088 18.1093 68.4088 12.1985C68.4088 7.01135 68.3888 6.61567 68.115 6.36789C67.7157 6.00642 67.3685 6.01573 67.5485 6.38315ZM109.39 11.8364C109.434 17.1296 109.415 17.6327 109.153 18.0322C108.926 18.3794 108.914 18.4671 109.095 18.4671C109.22 18.4671 109.476 18.3406 109.665 18.1861C110.005 17.9073 110.007 17.859 109.964 12.0458C109.922 6.55192 109.902 6.18322 109.631 6.13119C109.356 6.07836 109.344 6.36195 109.39 11.8364ZM37.7372 8.99264C37.5164 9.16543 37.2543 9.30835 37.1546 9.31027C37.0551 9.3122 36.903 9.40421 36.8166 9.51454C36.7005 9.66292 36.8836 9.8235 37.5196 10.1307L38.3796 10.5463V9.6088C38.3796 9.09332 38.3253 8.67308 38.2591 8.675C38.193 8.67693 37.958 8.81985 37.7372 8.99264ZM75.265 11.7133L74.8146 12.0017L75.3855 12.3384L75.9562 12.6753V12.0383C75.9562 11.3269 75.9056 11.303 75.265 11.7133ZM41.9124 17.5355C41.6033 17.6974 40.8807 18.0043 40.3066 18.2175L39.2628 18.6054L40.5844 18.6164L41.9058 18.6277L42.2414 17.9698C42.4261 17.608 42.5541 17.296 42.5258 17.2767C42.4976 17.2573 42.2215 17.3738 41.9124 17.5355ZM77.8029 18.0746L76.8394 18.448L77.664 18.4576C78.3719 18.4658 78.5259 18.4102 78.7516 18.0656C79.0619 17.5921 79.0479 17.5922 77.8029 18.0746ZM83.9854 18.0656L83.6082 18.4671H84.637H85.6657L85.075 18.0656C84.7501 17.8448 84.4569 17.6642 84.4233 17.6642C84.3899 17.6642 84.1929 17.8448 83.9854 18.0656ZM5.78102 19.1584C5.78102 19.5029 5.87673 19.5404 7.15963 19.6993C8.65098 19.8841 9.3068 20.2186 9.49485 20.8903C9.636 21.3953 9.636 35.1301 9.49485 35.6351C9.26987 36.4392 8.41941 36.7446 5.90146 36.9256C5.83514 36.9304 5.78102 37.1154 5.78102 37.3368V37.7394L16.2546 37.6981L26.7284 37.6569L27.808 35.3284C28.4018 34.0477 28.8915 32.9457 28.8963 32.8795C28.9011 32.8133 28.5407 32.7591 28.0954 32.7591C27.3193 32.7591 27.2304 32.8076 25.9436 33.9326C23.4375 36.1235 21.582 36.7913 17.9692 36.8029C16.1038 36.8088 15.6762 36.7618 15.0379 36.4793C14.5396 36.259 14.2358 36.0046 14.1261 35.7159C14.0199 35.4368 13.9774 32.6963 14.0063 28.0026L14.0511 20.7223L14.4527 20.3207C14.872 19.9016 16.0428 19.5912 17.2043 19.5912C17.7591 19.5912 17.8248 19.5486 17.8248 19.1897V18.7883H11.8029H5.78102V19.1584ZM9.5146 19.7492C10.2621 20.2255 10.2774 20.3992 10.2774 28.4276V35.9955L9.80798 36.4649C9.41182 36.8609 9.38517 36.9342 9.63696 36.9342C10.2714 36.9342 10.779 36.6047 11.0151 36.0396C11.2195 35.5503 11.2484 34.3346 11.2081 27.9334C11.1617 20.5762 11.153 20.3951 10.8298 20.0721C10.6478 19.8902 10.2143 19.7029 9.86628 19.6559C9.3606 19.5873 9.28994 19.6061 9.5146 19.7492ZM26.848 24.208C26.8898 24.4243 27.1417 24.5182 27.9439 24.6163C29.6944 24.8304 29.6142 24.5788 29.708 30.1537C29.7827 34.5933 29.8113 34.9661 30.117 35.4866C30.874 36.7751 32.7169 37.636 35.2875 37.9019C38.3354 38.2173 41.3219 37.5 42.7004 36.1215C43.7201 35.1018 43.7469 34.975 43.8535 30.6715C43.9191 28.0226 44.0214 26.5368 44.1664 26.1237C44.4297 25.3741 45.1061 24.7779 45.8514 24.638C46.2538 24.5625 46.4088 24.4492 46.4088 24.2303C46.4088 23.943 46.2387 23.9269 43.1971 23.9269C40.0925 23.9269 39.9854 23.9377 39.9854 24.2481C39.9854 24.4906 40.0936 24.5701 40.427 24.5728C41.2693 24.5796 42.188 25.1371 42.584 25.8821C42.9303 26.5335 42.9567 26.7911 43.0081 30.0431C43.0741 34.2074 42.9933 34.6286 41.9322 35.6568C40.9521 36.6063 39.7752 36.9969 37.8978 36.9956C35.4027 36.9937 33.8484 36.3147 33.232 34.9571C32.9558 34.3487 32.9265 33.8602 32.9232 29.8284C32.9191 24.4917 32.8095 24.7702 35.0057 24.5323C35.2363 24.5073 35.4282 24.37 35.459 24.208C35.509 23.9459 35.2183 23.9269 31.1533 23.9269C27.0879 23.9269 26.7976 23.9459 26.848 24.208ZM47.2117 24.2221C47.2117 24.466 47.37 24.5433 48.0302 24.6215C48.4803 24.6748 49.0764 24.8514 49.355 25.0141L49.8613 25.3097L49.9092 29.9578C49.9398 32.9397 49.8952 34.819 49.7844 35.2007C49.5458 36.0237 48.9078 36.7301 48.2913 36.8541C47.3427 37.0449 47.2117 37.1144 47.2117 37.4268C47.2117 37.7232 47.356 37.7372 50.4234 37.7372C53.5032 37.7372 53.635 37.7243 53.635 37.4232C53.635 37.187 53.4862 37.0825 53.0328 37.0004C52.1172 36.8345 51.6162 36.5209 51.2017 35.8542C50.833 35.2611 50.8239 35.1513 50.7794 30.7518L50.7339 26.2554L52.9087 30.4306C54.1049 32.7269 55.2666 34.931 55.4901 35.3284C55.7135 35.7258 56.0891 36.4305 56.3246 36.8941C56.6728 37.5792 56.8295 37.7368 57.1611 37.7354C57.6159 37.7333 57.2654 38.3448 61.3488 30.4306L63.5859 26.0948L63.5887 31.0988L63.5912 36.1027L63.0971 36.5185C62.8254 36.7472 62.4461 36.9352 62.2541 36.9365C61.5867 36.9407 61.1825 37.1286 61.1825 37.4348C61.1825 37.723 61.3741 37.7372 65.2774 37.7372C69.2025 37.7372 69.3723 37.7245 69.3723 37.4301C69.3723 37.1923 69.2184 37.0996 68.6898 37.0189C67.6447 36.8592 67.1116 36.601 66.95 36.1761C66.7488 35.647 66.76 25.9876 66.9625 25.4552C67.1482 24.9666 67.9747 24.5693 68.8051 24.5693C69.2651 24.5693 69.3723 24.5087 69.3723 24.2481C69.3723 23.9393 69.2651 23.9269 66.5951 23.9269H63.818L61.9806 27.4196C60.9699 29.3407 59.7807 31.6165 59.3378 32.4771C58.8951 33.3376 58.4967 34.0396 58.4525 34.0368C58.4084 34.0341 57.1737 31.7763 55.7088 29.0195L53.0454 24.0072L50.1285 23.9634C47.3634 23.922 47.2117 23.9355 47.2117 24.2221ZM70.8175 24.2481C70.8175 24.507 70.9246 24.5693 71.3691 24.5693C72.0649 24.5693 72.6397 24.7856 73.0593 25.2052C73.3758 25.5217 73.3869 25.7123 73.3869 30.8393V36.1459L72.9926 36.54C72.7758 36.7568 72.4237 36.9342 72.2098 36.9342C71.3609 36.9342 70.8175 37.1302 70.8175 37.4361C70.8175 37.7227 71.0173 37.7372 74.9927 37.7372C79.0364 37.7372 79.1679 37.7272 79.1679 37.4215C79.1679 37.1631 79.0192 37.0862 78.3471 36.997C77.8496 36.931 77.3594 36.7446 77.1026 36.5238L76.6788 36.1594L76.6321 31.1749C76.6064 28.4333 76.6457 25.9519 76.7195 25.6608C76.8797 25.0281 77.6549 24.5699 78.5657 24.5696C79.0608 24.5693 79.1679 24.5121 79.1679 24.2481C79.1679 23.9351 79.0608 23.9269 74.9927 23.9269C70.9246 23.9269 70.8175 23.9351 70.8175 24.2481ZM80.292 24.2279C80.292 24.4882 80.4421 24.5415 81.3377 24.5985C83.0338 24.7064 82.9341 24.3395 82.9879 30.6782L83.0341 36.1337L82.6582 36.5097C82.3824 36.7854 82.0168 36.9156 81.2871 36.9982C80.446 37.0934 80.292 37.1592 80.292 37.424C80.292 37.7301 80.4643 37.7372 87.9825 37.7372H95.6732L95.9447 37.0547C96.0939 36.6792 96.3141 36.1554 96.4339 35.8904C96.7195 35.2579 97.1533 34.1814 97.1533 34.1044C97.1533 34.071 96.8984 34.0437 96.5869 34.0437C96.1365 34.0437 95.7997 34.2262 94.9409 34.9356C93.4179 36.1938 92.2312 36.7382 90.5364 36.9561C88.928 37.1629 86.9918 36.9582 86.5698 36.5368C86.3612 36.3284 86.3039 35.7925 86.2599 33.6368L86.2059 30.9926H88.193C89.9344 30.9926 90.2687 31.0373 90.8966 31.354C91.5043 31.6603 91.6497 31.831 91.854 32.4772C92.0644 33.1425 92.1509 33.2392 92.5365 33.24L92.9781 33.2408V30.5912V27.9415H92.4963C92.162 27.9415 92.0146 28.0201 92.0146 28.1983C92.0146 28.3395 91.8937 28.7099 91.7458 29.0216C91.3127 29.9342 90.5555 30.182 88.186 30.1862L86.2042 30.1897L86.2589 27.7851C86.3291 24.7146 86.3556 24.6764 88.4866 24.5934C90.8915 24.4997 93.3955 25.2651 95.0084 26.5869C95.4522 26.9504 95.8506 27.1386 96.1766 27.1386C96.4488 27.1386 96.6698 27.1205 96.6677 27.0985C96.6656 27.0765 96.3157 26.3718 95.8901 25.5328L95.1163 24.0072L87.704 23.9655C80.5234 23.925 80.292 23.9332 80.292 24.2279ZM97.7956 24.2258C97.7956 24.4745 97.9583 24.5394 98.7649 24.6126C99.2979 24.661 99.9121 24.8171 100.13 24.9597L100.526 25.219L100.523 30.7153C100.522 33.7383 100.468 36.2911 100.403 36.3883C100.187 36.7112 99.5909 36.9342 98.9435 36.9342C98.0965 36.9342 97.7956 37.0651 97.7956 37.4332C97.7956 37.724 97.9843 37.7372 102.131 37.7372C106.294 37.7372 106.467 37.7248 106.467 37.4301C106.467 37.1925 106.313 37.0992 105.785 37.0174C103.838 36.7162 103.737 36.5452 103.737 33.5381V31.4744H104.551C104.998 31.4744 105.522 31.5564 105.715 31.6568C105.908 31.7572 107.186 32.9315 108.555 34.2665C111.748 37.381 112.159 37.6143 114.616 37.7084C116.361 37.7752 116.423 37.7661 116.423 37.4438C116.423 37.2008 116.22 37.0198 115.676 36.7794C115.095 36.522 113.23 35.0917 112.73 34.5184C112.686 34.4678 111.863 33.7116 110.902 32.8379L109.155 31.2491L109.939 31.0665C111.122 30.7906 111.821 30.4457 112.576 29.7637C114.422 28.0983 114.004 25.9289 111.606 24.7231C110.131 23.9815 109.617 23.9308 103.536 23.9289C98.0448 23.9271 97.7956 23.94 97.7956 24.2258ZM116.905 24.2481C116.905 24.5261 117.012 24.5693 117.7 24.5693C118.675 24.5693 119.222 24.8021 119.457 25.3171C119.576 25.5782 119.635 27.4445 119.635 30.9273V36.1459L119.265 36.5158C118.996 36.7847 118.624 36.9163 117.9 36.9982C117.057 37.0935 116.905 37.1589 116.905 37.4255C116.905 37.7343 117.051 37.7394 124.646 37.6986L132.386 37.6569L133.063 35.8904L133.739 34.124L133.182 34.0736C132.736 34.0335 132.503 34.1308 132.029 34.5554C131.037 35.4429 129.72 36.2718 128.788 36.5964C126.895 37.2556 123.725 37.1673 123.128 36.4388C122.886 36.144 122.847 35.7365 122.847 33.5442V30.9926H124.82C126.547 30.9926 126.883 31.0378 127.51 31.354C128.117 31.6603 128.263 31.831 128.467 32.4772C128.678 33.1425 128.764 33.2392 129.15 33.24L129.591 33.2408V30.5912V27.9415H129.127C128.729 27.9415 128.649 28.017 128.563 28.4755C128.451 29.074 127.813 29.7614 127.132 30.0189C126.883 30.1128 125.817 30.1897 124.763 30.1897H122.847V27.8702C122.847 25.65 122.863 25.5313 123.234 25.1002C123.597 24.678 123.713 24.646 125.081 24.5934C127.509 24.5001 129.777 25.1862 131.56 26.5528C132.349 27.1581 133.124 27.33 133.124 26.9002C133.124 26.769 132.819 26.0463 132.446 25.2943L131.768 23.9269H124.336C117.012 23.9269 116.905 23.9316 116.905 24.2481ZM29.9397 24.9263C30.1514 25.2283 30.1903 25.9742 30.1933 29.7839C30.1965 33.8029 30.2283 34.3541 30.4917 34.9335C30.8373 35.6944 31.5324 36.321 32.511 36.7539C33.6207 37.2448 34.0383 37.3049 33.1945 36.8523C32.1483 36.2913 31.2095 35.3157 31.0041 34.5761C30.9036 34.2141 30.8336 32.1728 30.8331 29.5875C30.8321 25.4263 30.8164 25.1959 30.5109 24.8904C30.3343 24.7138 30.0772 24.5693 29.9397 24.5693C29.7135 24.5693 29.7135 24.6032 29.9397 24.9263ZM42.6594 25.1026C43.044 25.5509 43.1396 25.5956 43.2597 25.3836C43.3382 25.2449 43.5121 25.0049 43.6459 24.8503C43.8735 24.5874 43.8346 24.5693 43.0455 24.5693H42.2019L42.6594 25.1026ZM50.3545 24.9855C50.6259 25.2423 51.1046 25.9222 51.4183 26.4963C52.4404 28.3663 55.4349 33.9299 56.1719 35.3284C57.0458 36.9868 57.1679 37.1351 57.1679 36.5389C57.1679 36.2792 56.6527 35.0954 55.9834 33.817C55.3319 32.5728 54.0993 30.2178 53.244 28.5839C51.6163 25.474 51.1394 24.8244 50.3431 24.6338L49.8613 24.5185L50.3545 24.9855ZM64.5547 24.7263C64.3505 24.8553 64.3017 25.7544 64.2336 30.6488C64.1573 36.1315 64.1372 36.4372 63.8321 36.7785L63.5109 37.1375L63.9124 37.0163C64.5098 36.8358 64.6975 36.6352 64.7932 36.0751C64.9045 35.4249 64.9824 24.5683 64.8759 24.5717C64.8317 24.573 64.6872 24.6427 64.5547 24.7263ZM73.708 24.8082C73.9086 25.051 73.9572 25.9612 73.9985 30.2543C74.0504 35.6515 74.012 36.2861 73.6099 36.6882C73.3889 36.9092 73.3907 36.9342 73.6268 36.9342C73.7715 36.9342 74.0295 36.8594 74.2004 36.768C74.4984 36.6084 74.5108 36.3748 74.5085 30.9469C74.5071 27.8367 74.453 25.2124 74.3881 25.1153C74.3232 25.0181 74.0894 24.8436 73.8686 24.7276C73.4898 24.5287 73.4808 24.5331 73.708 24.8082ZM83.2536 24.9263C83.4682 25.2323 83.5036 26.0664 83.5036 30.798C83.5036 34.2926 83.4428 36.4268 83.3374 36.6237C83.1463 36.9807 83.3355 37.0356 83.8354 36.768C84.1336 36.6084 84.146 36.372 84.146 30.8356V25.0692L83.789 24.8193C83.2355 24.4315 82.9474 24.489 83.2536 24.9263ZM93.4778 25.034C93.9536 25.2895 94.3668 25.4764 94.396 25.4494C94.4251 25.4223 94.3265 25.2131 94.1769 24.9847C93.9588 24.6518 93.7764 24.5693 93.2586 24.5693H92.6124L93.4778 25.034ZM100.782 24.907C101.068 25.2227 101.091 25.5975 101.136 30.6153C101.176 35.0944 101.145 36.0642 100.947 36.4599C100.7 36.9561 100.816 37.0478 101.339 36.768C101.637 36.6084 101.65 36.3728 101.65 30.9067C101.65 25.4257 101.638 25.1996 101.328 24.8904C101.152 24.7138 100.888 24.5693 100.742 24.5693C100.507 24.5693 100.512 24.6089 100.782 24.907ZM104.615 24.7222C103.886 25.0175 103.82 25.2816 103.761 28.1514L103.704 30.8815L105.391 30.7725C108.037 30.6013 109.392 30.0739 109.892 29.0202C110.216 28.3377 110.24 27.1573 109.944 26.4484C109.657 25.7621 108.712 24.9491 107.957 24.7395C107.246 24.5421 105.087 24.5309 104.615 24.7222ZM119.891 24.907C120.177 25.2224 120.2 25.5959 120.245 30.5133C120.286 34.9109 120.254 35.8771 120.053 36.3581C119.828 36.8968 119.831 36.9342 120.105 36.9342C120.813 36.9342 120.839 36.7139 120.839 30.7932V25.1832L120.46 24.8763C120.252 24.7074 119.97 24.5693 119.833 24.5693C119.628 24.5693 119.638 24.6276 119.891 24.907ZM130.073 25.043C130.559 25.2951 130.981 25.4774 131.012 25.4478C131.043 25.4183 130.935 25.2108 130.771 24.9868C130.538 24.6669 130.336 24.5799 129.832 24.582L129.19 24.5844L130.073 25.043ZM109.851 25.3651C111.016 26.5897 111.066 28.6778 109.958 29.8284C109.389 30.419 109.485 30.4964 110.222 30.0402C111.021 29.5456 111.361 28.8236 111.363 27.6204C111.365 26.3473 110.991 25.6147 110.071 25.0939C109.191 24.5953 109.158 24.6362 109.851 25.3651ZM91.1314 30.2742C90.7781 30.4918 90.6058 30.6702 90.7484 30.6707C90.891 30.6711 91.1982 30.8213 91.4309 31.0044L91.854 31.3371V30.6029C91.854 30.199 91.836 29.8708 91.8139 29.8735C91.7917 29.8763 91.4847 30.0566 91.1314 30.2742ZM127.615 30.2999L127.165 30.5367L127.77 30.8449C128.102 31.0145 128.398 31.1532 128.426 31.1532C128.454 31.1532 128.46 30.9003 128.439 30.5912C128.398 29.9792 128.295 29.9427 127.615 30.2999ZM107.589 32.6059C108.295 33.2283 109.106 34.0282 109.392 34.3834C110.149 35.326 111.934 36.7338 112.726 37.0133C113.701 37.3574 113.696 37.3319 112.636 36.5951C112.114 36.232 110.664 34.9313 109.416 33.7046C107.664 31.9846 107.049 31.4744 106.725 31.4744C106.353 31.4744 106.453 31.6056 107.589 32.6059ZM25.4386 35.208C25.1863 35.4068 24.3998 35.8742 23.6906 36.2471L22.4015 36.9249L23.6161 36.9296L24.8308 36.9342L25.411 35.8904C25.73 35.3164 25.97 34.8467 25.9443 34.8467C25.9184 34.8467 25.6909 35.0092 25.4386 35.208ZM49.547 36.6059L49.0786 37.0948H50.0225C50.8136 37.0948 50.9231 37.0624 50.6984 36.8941C50.551 36.7838 50.337 36.5636 50.2229 36.4051C50.0288 36.1352 49.9858 36.1479 49.547 36.6059ZM93.6204 36.6351L92.5766 37.0846L93.4741 37.0897C94.2899 37.0943 94.3893 37.0563 94.5642 36.6727C94.67 36.4404 94.7358 36.2359 94.7103 36.2179C94.6849 36.2001 94.1945 36.3878 93.6204 36.6351ZM130.796 36.3878C130.531 36.5076 130.061 36.7099 129.752 36.8371L129.19 37.0687L130.087 37.0817C130.907 37.0937 131.002 37.0579 131.177 36.6727C131.419 36.1427 131.388 36.1198 130.796 36.3878Z" fill="white"/>
</svg>
